{"title":"The.Karate.Kid.2010.DvDRiP.XViD.Optional NordicSub.Zen_Bud","uid":5768968,"size":962636832,"categoryP":"video","categoryS":"movies","magnet":"?xt=urn:btih:2bba054da9318f6e687bf8513b356cd7b6f57f46&amp;dn=The.Karate.Kid.2010.DvDRiP.XViD.Optional+NordicSub.Zen_Bud&amp;tr=udp%3A%2F%2Ftracker.openbittorrent.com%3A80&amp;tr=udp%3A%2F%2Fopen.demonii.com%3A1337&amp;tr=udp%3A%2F%2Ftracker.coppersurfer.tk%3A6969&amp;tr=udp%3A%2F%2Fexodus.desync.com%3A6969","seeders":0,"leechers":0,"uploader":"Zen_Bud","files":-1,"time":1282033987,"description":"General\nComplete name                    : The.Karate.Kid.2010.avi\nFormat                           : AVI\nFile size                        : 909 MiB\nDuration                         : 2h 7mn\nOverall bit rate                 : 999 Kbps\n\nVideo\n\nFormat                           : MPEG-4 Visual\nCodec ID/Hint                    : XviD\nDuration                         : 2h 7mn\nBit rate                         : 874 Kbps\nWidth                            : 720 pixels\nHeight                           : 456 pixels\nDisplay aspect ratio             : 2.25:1\nStream size                      : 795 MiB (87%)\nWriting library                  : XviD 1.1.2 (UTC 2006-11-01)\n\nAudio\n\nFormat                           : MPEG Audio\nCodec ID/Hint                    : MP3\nDuration                         : 2h 7mn\nBit rate                         : 112 Kbps\nChannel(s)                       : 2 channels\nSampling rate                    : 48.0 KHz\nStream size                      : 102 MiB (11%)\nWriting library                  : LAME3.98\n\nText #1\nLanguage                         : Danish\n\nText #2\nLanguage                         : Swedish\n\nText #3\nLanguage                         : Norwegian\n\nText #4\nLanguage                         : Finnish\n","torrent":{"xt":"urn:btih:2bba054da9318f6e687bf8513b356cd7b6f57f46","amp;dn":"The.Karate.Kid.2010.DvDRiP.XViD.Optional+NordicSub.Zen_Bud","amp;tr":["udp%3A%2F%2Ftracker.openbittorrent.com%3A80","udp%3A%2F%2Fopen.demonii.com%3A1337","udp%3A%2F%2Ftracker.coppersurfer.tk%3A6969","udp%3A%2F%2Fexodus.desync.com%3A6969"],"infoHash":"2bba054da9318f6e687bf8513b356cd7b6f57f46","infoHashBuffer":{"type":"Buffer","data":[43,186,5,77,169,49,143,110,104,123,248,81,59,53,108,215,182,245,127,70]},"announce":[],"urlList":[]}}